<svg width="31" height="30" viewBox="0 0 31 30" fill="none" xmlns="http://www.w3.org/2000/svg">
<path d="M27.1598 8.56956C26.9242 7.26993 25.8013 6.32349 24.4983 6.02801C22.5484 5.61481 18.9397 5.31934 15.0353 5.31934C11.1332 5.31934 7.4667 5.61481 5.51449 6.02801C4.21378 6.32349 3.08866 7.20992 2.85301 8.56956C2.61505 10.0469 2.37939 12.1153 2.37939 14.7745C2.37939 17.4338 2.61505 19.5021 2.91077 20.9795C3.14873 22.2792 4.27154 23.2256 5.57225 23.5211C7.64229 23.9343 11.1909 24.2297 15.0954 24.2297C18.9998 24.2297 22.5484 23.9343 24.6185 23.5211C25.9192 23.2256 27.042 22.3392 27.2799 20.9795C27.5156 19.5021 27.8113 17.3738 27.8714 14.7745C27.7513 12.1153 27.4555 10.0469 27.1598 8.56956ZM11.8424 18.9112V10.6379L19.0575 14.7745L11.8424 18.9112Z" fill="#DD294D"/>
</svg>
