<svg width="21" height="21" viewBox="0 0 21 21" fill="none" xmlns="http://www.w3.org/2000/svg">
<path d="M10.5 0C16.2986 0 21 4.70143 21 10.5C21 16.2985 16.2986 21 10.5 21C4.70136 21 0 16.2984 0 10.5C-4.19617e-05 4.70143 4.70136 0 10.5 0ZM4.95524 15.3207L5.79596 16.1616C5.94605 16.3114 6.38557 16.405 6.39967 16.405C9.05933 16.4282 11.6202 15.3835 13.5017 13.5017C15.3885 11.6139 16.4344 9.04397 16.4063 6.37537C16.4063 6.37416 16.31 5.94724 16.1601 5.7987L15.3194 4.9579C15.0117 4.64884 14.4208 4.50918 14.0068 4.64767L13.83 4.70666C13.4172 4.84503 12.9839 5.30142 12.8698 5.72188L12.4469 7.27399C12.3329 7.69567 12.4867 8.29557 12.7942 8.60321L13.3556 9.16464C12.8045 11.2049 11.2036 12.8061 9.1629 13.3586L8.60177 12.797C8.29271 12.488 7.69302 12.3343 7.27225 12.4482L5.72035 12.8726C5.2998 12.9881 4.84349 13.4188 4.70517 13.8314L4.64618 14.0108C4.50907 14.4236 4.64765 15.0144 4.95524 15.3207Z" fill="#DD294D"/>
</svg>
