<svg width="21" height="23" viewBox="0 0 21 23" fill="none" xmlns="http://www.w3.org/2000/svg">
<path d="M15.9462 0.543289C12.1889 -0.181096 8.37845 -0.181096 4.62029 0.543289C2.97656 0.914316 0.908617 2.92257 0.504326 4.53793C-0.168109 7.66347 -0.168109 10.8319 0.504326 13.9575C0.908617 15.5728 2.97656 17.5811 4.62029 17.9521C4.62071 17.9522 4.62112 17.9523 4.62154 17.9524C4.69476 17.9669 4.74814 18.0312 4.74814 18.1068V22.6855C4.74814 22.9144 5.02375 23.0271 5.18065 22.8614L7.32663 20.6293C7.32663 20.6293 9.03669 18.8502 9.34419 18.5304C9.37424 18.4991 9.41575 18.4821 9.45875 18.4833C11.6254 18.5442 13.7944 18.3668 15.9462 17.9522C17.59 17.5812 19.6588 15.5729 20.0622 13.9576C20.7355 10.832 20.7355 7.66356 20.0622 4.53801C19.6587 2.92257 17.5908 0.914316 15.9462 0.543289ZM16.0035 14.1906C15.6748 14.898 15.1964 15.4865 14.5064 15.8622C14.3117 15.9682 14.079 16.0024 13.8593 16.071C13.6066 15.9932 13.3658 15.941 13.1421 15.8469C10.8246 14.8725 8.69176 13.6154 7.00229 11.6883C6.04154 10.5925 5.28949 9.3553 4.65391 8.04603C4.35248 7.42512 4.09845 6.77991 3.83952 6.1389C3.60334 5.55434 3.95118 4.95043 4.31736 4.51C4.66097 4.09665 5.10311 3.78031 5.58195 3.54718C5.9557 3.3652 6.32437 3.47011 6.59733 3.79116C7.18741 4.48526 7.72943 5.21486 8.16834 6.01943C8.43822 6.5143 8.36417 7.11922 7.87504 7.456C7.75616 7.53786 7.64782 7.63394 7.53708 7.7264C7.43995 7.80742 7.34855 7.88928 7.28197 7.99899C7.16027 8.19965 7.15446 8.43649 7.23282 8.65473C7.83602 10.3347 8.85273 11.641 10.5212 12.3446C10.7883 12.4572 11.0563 12.5883 11.3639 12.5519C11.879 12.4909 12.0458 11.9183 12.4068 11.6192C12.7596 11.3268 13.2104 11.3229 13.5905 11.5667C13.9706 11.8105 14.3391 12.0722 14.7054 12.3367C15.0649 12.5964 15.4229 12.8504 15.7546 13.1463C16.0733 13.4309 16.1831 13.8043 16.0035 14.1906ZM13.0113 8.71614C12.8674 8.71875 12.9239 8.71589 12.9787 8.71429C12.7468 8.70605 12.6207 8.56773 12.5958 8.34285C12.5776 8.17853 12.5632 8.01204 12.5246 7.85218C12.4483 7.53736 12.2832 7.24558 12.022 7.05267C11.8986 6.96155 11.7588 6.89508 11.6124 6.85234C11.4263 6.79791 11.2331 6.81289 11.0475 6.76678C10.846 6.71681 10.7345 6.55132 10.7661 6.35966C10.7949 6.18525 10.9623 6.04913 11.1504 6.06292C12.3256 6.14891 13.1656 6.76468 13.2855 8.16692C13.294 8.26586 13.3039 8.37036 13.2822 8.46501C13.247 8.61889 13.1385 8.69898 13.0289 8.71354C13.0378 8.71371 13.0361 8.71446 13.0113 8.71614ZM12.2805 5.50908C11.9199 5.33013 11.5298 5.2189 11.1345 5.15261C10.9618 5.12366 10.7872 5.10608 10.6136 5.0816C10.4032 5.05198 10.291 4.91611 10.3009 4.70603C10.3102 4.50915 10.4521 4.36756 10.6638 4.37967C11.3595 4.41972 12.0314 4.57209 12.6499 4.90399C13.9076 5.57899 14.626 6.64445 14.8357 8.06714C14.8453 8.13159 14.8605 8.19545 14.8653 8.26014C14.8772 8.41983 14.8846 8.57977 14.8968 8.79035C14.8918 8.82872 14.8891 8.91891 14.867 9.00388C14.7866 9.31231 14.3252 9.35093 14.2189 9.03964C14.1875 8.94726 14.1827 8.84218 14.1826 8.74273C14.1815 8.09205 14.0419 7.44203 13.7182 6.8759C13.3854 6.29421 12.8768 5.80506 12.2805 5.50908ZM16.1667 9.90595C15.9237 9.9089 15.8143 9.70286 15.7986 9.48201C15.7673 9.04485 15.7458 8.60576 15.6862 8.17222C15.3724 5.88372 13.5718 3.99039 11.3242 3.58411C10.986 3.52295 10.6397 3.50688 10.2972 3.47045C10.0806 3.4474 9.79696 3.4341 9.74897 3.16126C9.70871 2.9325 9.89924 2.75035 10.1142 2.73866C10.1726 2.73546 10.2314 2.73815 10.2901 2.73841C13.2011 2.82111 10.4677 2.7448 10.2979 2.73883C13.3257 2.82826 15.8116 4.86596 16.3447 7.90048C16.4356 8.41798 16.468 8.94709 16.5084 9.47233C16.5254 9.69318 16.4019 9.90309 16.1667 9.90595Z" fill="#DD294D"/>
</svg>
