<svg width="41" height="41" viewBox="0 0 41 41" fill="none" xmlns="http://www.w3.org/2000/svg">
<g clip-path="url(#clip0)">
<path d="M23.2332 0H9.56659C7.6826 0 6.1499 1.5327 6.1499 3.41669V28.0167C6.1499 29.9006 7.6826 31.4334 9.56659 31.4334H21.8666V30.0667H9.56659C8.43637 30.0667 7.51659 29.1469 7.51659 28.0167V3.41669C7.51659 2.28647 8.43637 1.36669 9.56659 1.36669H23.2333C24.3635 1.36669 25.2833 2.28647 25.2833 3.41669V23.2334H26.6499V3.41669C26.6499 1.5327 25.1172 0 23.2332 0Z" fill="#DD294D"/>
<path d="M33.2037 18.2013L26.5002 9.82358L25.4321 10.6778L32.1356 19.0548C33.0055 20.1413 33.4838 21.5066 33.4832 22.8985V39.6333H23.486C19.956 39.6333 17.0832 36.7612 17.0832 33.2305V30.75H15.7166V33.2305C15.7166 37.5143 19.2023 41 23.486 41H34.1665C34.5444 41 34.8499 40.6946 34.8499 40.3167V22.8992C34.8506 21.1991 34.2663 19.5303 33.2037 18.2013Z" fill="#DD294D"/>
<path d="M17.764 16.1151C18.2437 16.1288 18.6899 16.3282 19.0186 16.6767L28.2019 26.4347L29.1975 25.4979L20.0128 15.7392C19.4327 15.1248 18.6475 14.773 17.8029 14.749C16.9494 14.7204 16.1547 15.0312 15.5479 15.6046C15.5404 15.6121 15.4857 15.664 15.4789 15.6715C14.3111 16.8428 14.2325 18.6809 15.2978 19.9506L21.1834 26.9001V29.0143C21.1827 32.7904 23.5573 36.216 27.0936 37.5402L27.5732 36.2603C24.5679 35.1349 22.5494 32.2232 22.55 29.0143V26.65C22.55 26.4887 22.4926 26.3315 22.3881 26.2079L16.3427 19.0691C15.7379 18.3489 15.7824 17.3026 16.4794 16.605C16.8278 16.2756 17.2829 16.1123 17.764 16.1151Z" fill="#DD294D"/>
<path d="M22.55 1.3667H21.1833V18.45H22.55V1.3667Z" fill="#DD294D"/>
<path d="M19.1335 22.55H17.7668V30.75H19.1335V22.55Z" fill="#DD294D"/>
<path d="M19.1335 0.683311H17.7668V15.7166H19.1335V0.683311Z" fill="#DD294D"/>
<path d="M10.9333 3.4167H9.56665V12.3H10.9333V3.4167Z" fill="#DD294D"/>
<path d="M14.3498 3.4167H12.9832V8.88339H14.3498V3.4167Z" fill="#DD294D"/>
<path d="M14.35 22.55H10.25C9.87279 22.55 9.56665 22.8554 9.56665 23.2333V27.3333C9.56665 27.7112 9.87279 28.0166 10.25 28.0166H14.35C14.7271 28.0166 15.0333 27.7112 15.0333 27.3333V23.2333C15.0333 22.8554 14.7271 22.55 14.35 22.55ZM13.6667 26.65H10.9333V23.9167H13.6667V26.65Z" fill="#DD294D"/>
</g>
<defs>
<clipPath id="clip0">
<rect width="41" height="41" fill="white"/>
</clipPath>
</defs>
</svg>
