<svg width="49" height="47" viewBox="0 0 49 47" fill="none" xmlns="http://www.w3.org/2000/svg">
<path d="M48.2701 36.3544L10.7472 46.4086C10.3896 46.5044 10.0227 46.2928 9.92687 45.9352L3.16621 20.7041C3.07039 20.3465 3.28241 19.9798 3.64001 19.884L41.1628 9.82978C41.52 9.73406 41.8874 9.94551 41.9832 10.3031L48.7439 35.5343C48.8397 35.8919 48.6273 36.2586 48.2701 36.3544ZM11.0473 44.9415L47.2763 35.234L40.8624 11.297L4.63339 21.0045L11.0473 44.9415Z" fill="#DD294D"/>
<path d="M44.9887 34.4602L12.6414 43.1276C12.2842 43.2233 11.9172 43.0114 11.8213 42.6538L6.44756 22.5986C6.35174 22.241 6.56366 21.874 6.92089 21.7782L39.2681 13.1108C39.6257 13.015 39.9928 13.2269 40.0886 13.5845L45.4624 33.6397C45.5582 33.9973 45.3463 34.3644 44.9887 34.4602ZM12.9418 41.6604L43.9953 33.3397L38.9681 14.5779L7.91464 22.8987L12.9418 41.6604Z" fill="#DD294D"/>
<path d="M22.4353 7.22037C22.7224 8.29206 22.0861 9.39415 21.0145 9.68131C19.9424 9.96857 18.8407 9.33217 18.5535 8.26049C18.2662 7.18843 18.9023 6.0868 19.9743 5.79954C21.046 5.51238 22.148 6.14831 22.4353 7.22037Z" fill="#DD294D"/>
<path d="M14.8975 17.9075C14.8253 17.9268 14.7459 17.9223 14.6722 17.8885C14.504 17.8117 14.4297 17.613 14.5069 17.4448L18.6591 8.35799C18.7355 8.18993 18.9332 8.11474 19.1028 8.19231C19.2709 8.26905 19.3453 8.46814 19.2682 8.6364L15.1158 17.7228C15.0727 17.8181 14.9908 17.8825 14.8975 17.9075Z" fill="#DD294D"/>
<path d="M30.748 13.6603C30.6577 13.6845 30.558 13.6708 30.4739 13.6144L22.011 7.90819C21.8576 7.80488 21.8172 7.5963 21.9207 7.44359C22.0238 7.28939 22.2319 7.25029 22.3855 7.35275L30.8485 13.0593C31.0018 13.1622 31.0426 13.3707 30.9388 13.5239C30.8921 13.5939 30.8236 13.6401 30.748 13.6603Z" fill="#DD294D"/>
</svg>
