<svg width="42" height="42" viewBox="0 0 42 42" fill="none" xmlns="http://www.w3.org/2000/svg">
<path d="M24.3883 7.12646V5.0603H26.2699L26.9373 4.39252V0.667786L26.2699 0H15.8115L15.1437 0.667786V4.39252L15.8115 5.0603H17.6931V7.12646C9.72775 8.65237 3.44531 15.6792 3.44531 24.4046C3.44531 34.1288 11.3149 42 21.0407 42C30.7649 42 38.6361 34.1304 38.6361 24.4046C38.6361 15.6763 32.3511 8.65205 24.3883 7.12646ZM16.3736 1.22983H25.7078V3.83047H24.3883V2.25458H23.1584V3.83047H21.6556V2.25458H20.4258V3.83047H18.9092V2.25458H17.6793V3.83047H16.3736V1.22983ZM23.1584 5.0603V6.7115H18.9229V5.0603H23.1584ZM21.0407 40.7702C12.0166 40.7702 4.67482 33.4287 4.67482 24.4046C4.67482 15.3805 12.0166 8.03906 21.0407 8.03906C30.0648 8.03906 37.4062 15.3805 37.4062 24.4046C37.4062 33.4287 30.0648 40.7702 21.0407 40.7702Z" fill="#DD294D"/>
<path d="M21.0407 10.9448C13.6188 10.9448 7.58057 16.9827 7.58057 24.4046C7.58057 31.8265 13.6188 37.8648 21.0407 37.8648C28.4627 37.8648 34.5006 31.8265 34.5006 24.4046C34.5006 16.9827 28.4627 10.9448 21.0407 10.9448ZM29.2391 15.337L27.1662 17.4095L28.0358 18.2792L30.1084 16.2063C32.073 18.3769 33.2711 21.2535 33.2711 24.4046C33.2711 27.5558 32.073 30.4323 30.1084 32.6029L28.0358 30.53L27.1662 31.3997L29.2391 33.4723C27.2104 35.3084 24.5652 36.4747 21.6557 36.6196V33.6822H20.4258V36.6196C17.516 36.4747 14.8711 35.3084 12.8424 33.4723L14.915 31.3997L14.0457 30.53L11.9728 32.6029C10.137 30.5743 8.97061 27.9291 8.82578 25.0195H11.7629V23.7897H8.82578C8.97061 20.8802 10.137 18.235 11.9728 16.2063L14.0457 18.2792L14.915 17.4095L12.8424 15.337C15.013 13.3724 17.8896 12.1743 21.0407 12.1743C24.1919 12.1743 27.0684 13.3724 29.2391 15.337Z" fill="#DD294D"/>
<path d="M32.2463 23.7897H21.6556V13.199H20.4258V25.0195H32.2463V23.7897Z" fill="#DD294D"/>
</svg>
