<svg width="43" height="44" viewBox="0 0 43 44" fill="none" xmlns="http://www.w3.org/2000/svg">
<path d="M41.4246 34.7738L34.8059 10.0722C34.52 9.00532 33.4233 8.37215 32.3564 8.65803L12.021 14.1069C10.954 14.3928 10.3209 15.4894 10.6067 16.5564L17.2255 41.258C17.5114 42.3249 18.6081 42.9581 19.675 42.6722L40.0104 37.2233C41.0773 36.9375 41.7105 35.8408 41.4246 34.7738Z" stroke="#DD294D" stroke-width="1.2"/>
<path d="M16.7913 39.6377L40.9904 33.1535" stroke="#DD294D" stroke-width="1.2"/>
<path d="M16.2371 17.7362L19.0492 16.9827" stroke="#DD294D" stroke-width="1.2"/>
<path d="M27.7073 14.6627L30.5194 13.9092" stroke="#DD294D" stroke-width="1.2"/>
<path d="M17.633 17.3224L15.8087 10.5141C14.96 7.34662 16.8397 4.09082 20.0072 3.2421V3.2421C23.1747 2.39337 26.4305 4.2731 27.2793 7.4406L29.1035 14.2489" stroke="#DD294D" stroke-width="1.2"/>
<path d="M17.8254 22.85H0" stroke="#DD294D" stroke-width="1.2"/>
<path d="M17.8254 28.311L6.29126 28.311" stroke="#DD294D" stroke-width="1.2"/>
<path d="M17.8255 33.5538L9.43701 33.5538" stroke="#DD294D" stroke-width="1.2"/>
</svg>
