<svg width="27" height="25" viewBox="0 0 27 25" fill="none" xmlns="http://www.w3.org/2000/svg">
<path d="M22.1795 2H5.52574C4.08935 2 2.92358 3.12 2.92358 4.5V20.5C2.92358 21.88 4.08935 23 5.52574 23H22.1795C23.6159 23 24.7817 21.88 24.7817 20.5V4.5C24.7817 3.12 23.6159 2 22.1795 2ZM20.4725 16.5L18.5313 16.495C18.5313 16.495 18.4897 16.5 18.422 16.5C18.2659 16.5 17.9432 16.46 17.5633 16.21C16.8815 15.755 16.231 14.625 15.7158 14.625C15.6793 14.625 15.6481 14.63 15.6169 14.64C15.1693 14.775 15.034 15.205 15.034 15.73C15.034 15.915 14.8987 16 14.5344 16H13.53C12.4058 16 11.3181 15.975 10.0951 14.69C8.29443 12.795 6.60823 9.425 6.60823 9.425C6.60823 9.425 6.51456 9.23 6.61344 9.115C6.70712 9.01 6.9257 9 7.00897 9C7.02978 9 7.04019 9 7.04019 9H9.12192C9.12192 9 9.31448 9.035 9.45499 9.135C9.57469 9.22 9.63714 9.375 9.63714 9.375C9.63714 9.375 9.99104 10.035 10.4334 10.78C11.1776 12.01 11.5783 12.42 11.8646 12.42C11.9114 12.42 11.9583 12.41 12.0051 12.385C12.4319 12.16 12.307 10.34 12.307 10.34C12.307 10.34 12.3122 9.68 12.0884 9.39C11.9166 9.16 11.5888 9.095 11.443 9.075C11.3285 9.06 11.5159 8.8 11.7657 8.68C12.0884 8.53 12.6244 8.5 13.2698 8.5H13.582C14.1909 8.51 14.2065 8.57 14.4459 8.625C15.1641 8.79 14.9195 9.435 14.9195 10.98C14.9195 11.475 14.8258 12.17 15.1953 12.405C15.2214 12.42 15.2578 12.43 15.3046 12.43C15.544 12.43 16.0593 12.135 16.8815 10.8C17.3395 10.04 17.6934 9.285 17.6934 9.285C17.6934 9.285 17.7715 9.15 17.8912 9.08C18.0057 9.015 18.0057 9.015 18.1566 9.015H18.1722C18.3387 9.015 19.9937 9 20.358 9H20.3997C20.7483 9 21.0658 9.005 21.1231 9.21C21.2063 9.52 20.868 10.075 19.9781 11.225C18.5105 13.11 18.344 12.97 19.5618 14.06C20.7275 15.1 20.9669 15.605 21.0086 15.67C21.4926 16.44 20.4725 16.5 20.4725 16.5Z" fill="#DD294D"/>
</svg>
