<svg width="24" height="23" viewBox="0 0 24 23" fill="none" xmlns="http://www.w3.org/2000/svg">
<path d="M7.36606 1.37988C4.06513 1.37988 1.3811 4.06168 1.3811 7.35988V15.6399C1.3811 18.9381 4.06513 21.6199 7.36606 21.6199H15.6529C18.9539 21.6199 21.6379 18.9381 21.6379 15.6399V7.35988C21.6379 4.06168 18.9539 1.37988 15.6529 1.37988H7.36606ZM17.0341 5.05988C17.5405 5.05988 17.9548 5.47388 17.9548 5.97988C17.9548 6.48588 17.5405 6.89988 17.0341 6.89988C16.5276 6.89988 16.1133 6.48588 16.1133 5.97988C16.1133 5.47388 16.5276 5.05988 17.0341 5.05988ZM11.5095 6.43988C14.304 6.43988 16.5737 8.70768 16.5737 11.4999C16.5737 14.2921 14.304 16.5599 11.5095 16.5599C8.71498 16.5599 6.4453 14.2921 6.4453 11.4999C6.4453 8.70768 8.71498 6.43988 11.5095 6.43988ZM11.5095 7.35988C9.226 7.35988 7.36606 9.21828 7.36606 11.4999C7.36606 13.7815 9.226 15.6399 11.5095 15.6399C13.793 15.6399 15.6529 13.7815 15.6529 11.4999C15.6529 9.21828 13.793 7.35988 11.5095 7.35988Z" fill="#DD294D"/>
</svg>
